<svg width="31" height="31" viewBox="0 0 31 31" fill="none" xmlns="http://www.w3.org/2000/svg">
<path d="M6.45833 28.4166C5.74792 28.4166 5.13976 28.1636 4.63385 27.6577C4.12795 27.1518 3.875 26.5437 3.875 25.8333V7.74992C3.875 7.0395 4.12795 6.43134 4.63385 5.92544C5.13976 5.41954 5.74792 5.16659 6.45833 5.16659H7.75V2.58325H10.3333V5.16659H20.6667V2.58325H23.25V5.16659H24.5417C25.2521 5.16659 25.8602 5.41954 26.3661 5.92544C26.872 6.43134 27.125 7.0395 27.125 7.74992V25.8333C27.125 26.5437 26.872 27.1518 26.3661 27.6577C25.8602 28.1636 25.2521 28.4166 24.5417 28.4166H6.45833ZM6.45833 25.8333H24.5417V12.9166H6.45833V25.8333ZM6.45833 10.3333H24.5417V7.74992H6.45833V10.3333Z" fill="#E3E3E3"/>
</svg>
