<svg width="31" height="31" viewBox="0 0 31 31" fill="none" xmlns="http://www.w3.org/2000/svg">
<path d="M15.5 15.4999C16.2104 15.4999 16.8186 15.247 17.3245 14.7411C17.8304 14.2352 18.0833 13.627 18.0833 12.9166C18.0833 12.2062 17.8304 11.598 17.3245 11.0921C16.8186 10.5862 16.2104 10.3333 15.5 10.3333C14.7896 10.3333 14.1814 10.5862 13.6755 11.0921C13.1696 11.598 12.9167 12.2062 12.9167 12.9166C12.9167 13.627 13.1696 14.2352 13.6755 14.7411C14.1814 15.247 14.7896 15.4999 15.5 15.4999ZM15.5 24.9937C18.1264 22.5826 20.0746 20.3921 21.3448 18.4223C22.6149 16.4525 23.25 14.7034 23.25 13.1749C23.25 10.8284 22.5019 8.90704 21.0057 7.41086C19.5095 5.91468 17.6743 5.16659 15.5 5.16659C13.3257 5.16659 11.4904 5.91468 9.99426 7.41086C8.49808 8.90704 7.74999 10.8284 7.74999 13.1749C7.74999 14.7034 8.38506 16.4525 9.6552 18.4223C10.9253 20.3921 12.8736 22.5826 15.5 24.9937ZM15.5 28.4166C12.034 25.4673 9.4453 22.7279 7.73384 20.1984C6.02239 17.6688 5.16666 15.3277 5.16666 13.1749C5.16666 9.94575 6.20537 7.37318 8.2828 5.45721C10.3602 3.54124 12.766 2.58325 15.5 2.58325C18.234 2.58325 20.6397 3.54124 22.7172 5.45721C24.7946 7.37318 25.8333 9.94575 25.8333 13.1749C25.8333 15.3277 24.9776 17.6688 23.2661 20.1984C21.5547 22.7279 18.966 25.4673 15.5 28.4166Z" fill="#E3E3E3"/>
</svg>
